<svg width="124" height="71" viewBox="0 0 124 71" fill="none" xmlns="http://www.w3.org/2000/svg">
<g id="Frame 12">
<path id="image 6 (Traced)" fill-rule="evenodd" clip-rule="evenodd" d="M25.5543 20.5086C23.2893 21.6052 21.7261 24.7851 21.7261 28.2958C21.7261 30.1678 21.3007 30.8932 20.191 30.9125C18.7287 30.938 18.7287 30.9818 20.191 31.8336C21.5051 32.5994 21.7261 34.1109 21.7261 42.334C21.7261 51.3545 21.8332 51.9396 23.4806 51.9396C25.1271 51.9396 25.235 51.3545 25.235 42.4243C25.235 33.4231 25.342 32.8573 27.2088 31.9564L29.1825 31.0046L27.093 30.9459C25.1482 30.8906 25.0385 30.6292 25.5035 27.1633C25.8605 24.4991 26.7053 22.878 28.4702 21.4657C30.6186 19.7463 30.7107 19.4981 29.1825 19.5463C28.2176 19.5762 26.5851 20.0095 25.5543 20.5086ZM92.362 23.8368C91.4005 25.393 92.9532 29.0677 94.8419 29.7072C96.4455 30.2493 96.2025 30.4546 93.2199 31.0774C91.29 31.481 89.3163 31.7783 88.8338 31.738C88.3513 31.6985 84.6477 31.5003 80.6028 31.2976C73.5604 30.945 73.3104 30.9967 74.6815 32.5117C75.8105 33.7591 76.114 35.9995 76.114 43.0814C76.114 51.1668 76.2675 52.0387 77.6492 51.7755C78.9589 51.5255 79.2484 50.1448 79.6229 42.3726C79.98 34.96 80.3475 33.0837 81.5967 32.2985C82.7134 31.5968 83.5503 31.5976 84.667 32.3003C85.9442 33.1038 86.2442 34.8372 86.4512 42.6024C86.6793 51.1615 86.8416 51.9396 88.396 51.9396C89.9575 51.9396 90.1119 51.1562 90.34 42.0708C90.5847 32.352 90.6207 32.1977 92.7322 31.8994C96.2542 31.402 97.1674 33.7565 97.1674 43.3349C97.1674 51.3545 97.2867 51.9396 98.9219 51.9396C100.55 51.9396 100.676 51.3562 100.671 43.8253C100.668 38.3426 100.24 34.896 99.3552 33.1986C98.6341 31.8161 98.0446 30.5572 98.0446 30.4011C98.0446 30.245 99.9201 29.83 102.211 29.48C105.763 28.9379 106.055 28.7546 104.185 28.2414C102.979 27.9098 99.9403 26.5966 97.4332 25.3237C94.8787 24.0263 92.6488 23.3728 92.362 23.8368ZM39.5855 31.2766C36.1424 32.7749 34.5099 37.2084 35.1091 43.4375C35.6214 48.7746 38.5864 51.9396 43.0716 51.9396C45.9568 51.9396 49.7973 49.893 49.7973 48.3544C49.7973 47.8851 48.6824 48.3254 47.3191 49.3334C45.1814 50.9132 44.5199 51.0185 42.497 50.0965C40.9523 49.393 39.8548 47.9544 39.2785 45.8788C37.8144 40.6102 37.882 40.5357 44.0953 40.5357C49.5517 40.5357 49.7973 40.4436 49.7973 38.3996C49.7973 34.5653 48.2613 32.0108 45.3428 30.9941C43.7892 30.452 42.4777 30.0248 42.4295 30.0432C42.3804 30.0625 41.1005 30.6169 39.5855 31.2766ZM44.9226 32.8363C45.6735 33.9082 46.2884 35.6846 46.2884 36.7838C46.2884 38.5593 45.8603 38.7812 42.433 38.7812H38.5785L39.2996 35.5829C40.3829 30.7783 42.6918 29.6502 44.9226 32.8363ZM56.1572 32.1073C57.4502 33.0889 57.6923 34.746 57.6923 42.6059C57.6923 51.3545 57.802 51.9396 59.4468 51.9396C61.0705 51.9396 61.2012 51.3545 61.2012 44.1016C61.2012 39.7909 61.5863 35.2513 62.0565 34.0135C63.1504 31.138 66.2268 30.9511 66.6225 33.7372C67.0137 36.4899 69.5349 36.3004 69.5349 33.5179C69.5349 31.6757 69.069 31.2801 66.6269 31.0459C65.0268 30.8923 63.1522 31.2362 62.46 31.8108C61.5644 32.5538 61.2012 32.5714 61.2012 31.8705C61.2012 31.3125 59.7757 30.8985 57.9116 30.9143C54.9887 30.9388 54.7931 31.0722 56.1572 32.1073Z" fill="#D4CFC3"/>
</g>
</svg>
