<svg width="124" height="71" viewBox="0 0 124 71" fill="none" xmlns="http://www.w3.org/2000/svg">
<g id="Frame 10">
<path id="image 8 (Traced)" fill-rule="evenodd" clip-rule="evenodd" d="M18.3096 22.6112C18.3096 31.2369 18.421 31.822 20.064 31.822C21.7071 31.822 21.8185 31.2369 21.8185 22.6112C21.8185 13.9854 21.7071 13.4003 20.064 13.4003C18.421 13.4003 18.3096 13.9854 18.3096 22.6112ZM51.6441 14.7162C51.6441 15.5346 52.4722 16.032 53.8372 16.032C55.2021 16.032 56.0302 15.5346 56.0302 14.7162C56.0302 13.8977 55.2021 13.4003 53.8372 13.4003C52.4722 13.4003 51.6441 13.8977 51.6441 14.7162ZM24.8256 19.6111C22.4755 22.2068 22.6238 27.7535 25.1089 30.2386C29.6679 34.7985 37.1304 31.4659 37.1304 24.87C37.1304 20.0909 34.8602 17.7865 30.1521 17.7865C27.5432 17.7865 25.9976 18.3163 24.8256 19.6111ZM38.4857 23.82C38.4857 27.7228 38.891 30.1895 39.6349 30.8062C40.2665 31.3308 43.0297 31.7334 45.7755 31.7001L50.7669 31.6405V24.7139C50.7669 18.3716 50.6186 17.7865 49.0124 17.7865C47.4825 17.7865 47.2562 18.3759 47.2448 22.3919C47.229 27.728 46.393 29.4886 44.0824 29.0483C42.7139 28.7877 42.3885 27.8035 42.1718 23.2603C41.9455 18.5049 41.6858 17.7865 40.1981 17.7865C38.6656 17.7865 38.4857 18.4207 38.4857 23.82ZM52.2292 18.3716C51.9073 18.6926 51.6441 21.8506 51.6441 25.3894C51.6441 31.6659 51.6976 31.822 53.8372 31.822C55.9934 31.822 56.0302 31.7054 56.0302 24.8042C56.0302 18.5838 55.8477 17.7865 54.4223 17.7865C53.5371 17.7865 52.5503 18.0496 52.2292 18.3716ZM57.5943 20.0479C56.2179 23.0673 57.4934 24.9823 61.6602 26.1508C63.4463 26.6517 64.8963 27.4421 64.8823 27.907C64.8472 29.0728 60.4163 29.5334 60.4163 28.371C60.4163 27.857 59.6268 27.4359 58.6619 27.4359C57.6969 27.4359 56.9074 27.9798 56.9074 28.6447C56.9074 30.8431 59.3286 31.9282 63.6208 31.6536C67.3315 31.4159 67.942 31.0913 68.6886 28.957C69.7263 25.9911 68.1245 24.0261 63.9787 23.1779C60.8611 22.5401 60.2909 21.0032 63.0129 20.576C63.9972 20.4225 64.8025 20.7181 64.8025 21.2339C64.8025 21.7506 65.592 22.1726 66.5569 22.1726C67.5218 22.1726 68.3114 21.6594 68.3114 21.0322C68.3114 18.9295 66.235 17.7865 62.4155 17.7865C59.1926 17.7865 58.4698 18.1251 57.5943 20.0479ZM32.1697 21.4708C33.7636 23.0647 33.497 28.2631 31.7872 28.9193C29.6872 29.7246 27.5617 28.0438 27.238 25.3209C26.773 21.4103 29.7696 19.0707 32.1697 21.4708ZM61.2936 42.7873C61.2936 51.4131 61.405 51.9982 63.048 51.9982C64.691 51.9982 64.8025 51.4131 64.8025 42.7873C64.8025 34.1616 64.691 33.5765 63.048 33.5765C61.405 33.5765 61.2936 34.1616 61.2936 42.7873ZM18.3096 47.7366C18.3096 56.6764 18.4175 57.2615 20.064 57.2615C21.4825 57.2615 21.8185 56.6764 21.8185 54.2097C21.8185 51.264 21.8957 51.1938 24.037 52.1693C25.8976 53.0175 26.6397 52.8938 28.6424 51.4052C31.5583 49.2367 32.3715 43.4198 30.2179 40.1337C29.0293 38.3188 28.2055 38.0705 23.5852 38.1363L18.3096 38.2109V47.7366ZM34.4987 40.1162C29.8635 44.7506 33.4706 52.8754 40.163 52.8754C41.0402 52.8754 42.7982 52.057 44.0693 51.0569C47.0588 48.706 47.3659 42.4566 44.6263 39.7171C42.1052 37.1959 37.226 37.388 34.4987 40.1162ZM47.5773 39.2732C46.8729 41.1083 47.7931 50.2525 48.7817 51.2411C49.1922 51.6517 50.4976 51.971 51.6827 51.9499C52.8678 51.9289 55.3179 51.9315 57.1267 51.9543L60.4163 51.9973V44.9795C60.4163 38.5477 60.2698 37.9626 58.6619 37.9626C57.1504 37.9626 56.9074 38.5477 56.9074 42.1812C56.9074 46.9226 55.267 49.935 53.1319 49.1156C52.1231 48.7279 51.6608 47.1647 51.4695 43.4988C51.2607 39.4811 50.8835 38.3574 49.6677 38.1258C48.8221 37.9644 47.8808 38.481 47.5773 39.2732ZM68.092 38.91C66.2367 39.9908 66.0762 43.49 67.8166 44.9339C68.5096 45.5085 70.1614 46.2699 71.4878 46.6243C74.6581 47.4717 75.2774 49.3665 72.3834 49.3665C71.1658 49.3665 69.9254 48.9718 69.6272 48.4893C68.9701 47.4252 65.6797 47.3121 65.6797 48.3533C65.6797 49.4762 68.4947 51.7131 70.7886 52.4131C71.9097 52.7544 73.9686 52.5614 75.3642 51.9833C80.3355 49.9244 79.4433 44.8357 73.8791 43.5198C70.0219 42.6075 68.8561 40.5943 72.1861 40.5943C73.4326 40.5943 74.4519 40.989 74.4519 41.4715C74.4519 41.954 75.2414 42.3487 76.2064 42.3487C78.1608 42.3487 78.5222 40.6294 76.9081 39.0153C75.6327 37.7398 70.2132 37.6749 68.092 38.91ZM81.7653 39.2583C77.6836 42.1163 78.5793 50.0744 83.1978 51.9868C85.9558 53.1298 88.6147 52.6237 90.6753 50.5622C93.3421 47.8954 91.1648 46.4726 87.7147 48.6279C85.7488 49.8551 83.2242 49.0534 83.2242 47.2007C83.2242 46.1734 84.2567 45.8576 87.6103 45.8576C91.8455 45.8576 91.9964 45.7717 91.9964 43.3619C91.9964 38.6302 86.0611 36.2494 81.7653 39.2583ZM93.7509 45.1374C93.7509 51.4131 93.9 51.9982 95.5053 51.9982C97.0659 51.9982 97.2598 51.4131 97.2598 46.7077C97.2598 42.7935 97.6054 41.2838 98.587 40.9074C101.068 39.9557 102.523 42.3119 102.523 47.2805C102.523 51.4131 102.741 51.9982 104.278 51.9982C105.839 51.9982 106.032 51.4131 106.032 46.677C106.032 38.8275 105.315 37.9582 98.9905 38.1319L93.7509 38.2767V45.1374ZM27.959 44.9041C27.959 48.0638 25.7677 50.0709 23.7185 48.7884C21.6395 47.4875 21.3062 43.1382 23.1799 41.768C25.4125 40.1355 27.959 41.8066 27.959 44.9041ZM41.8192 41.6469C43.0324 42.8602 43.1912 46.6278 42.1016 48.3463C41.692 48.9919 40.4156 49.3867 39.2638 49.2235C37.6085 48.9902 37.1111 48.3182 36.8909 46.0199C36.4672 41.6057 39.2814 39.1091 41.8192 41.6469ZM87.0997 41.1268C89.5446 42.0645 88.6919 44.1032 85.8558 44.1032C84.2479 44.1032 83.2242 43.6479 83.2242 42.9338C83.2242 40.7697 84.554 40.1495 87.0997 41.1268Z" fill="#D4CFC3"/>
</g>
</svg>
