<svg width="124" height="71" viewBox="0 0 124 71" fill="none" xmlns="http://www.w3.org/2000/svg">
<g id="Frame 9">
<path id="image 4 (Traced)" fill-rule="evenodd" clip-rule="evenodd" d="M85.4523 35.0038V47.8349L88.3033 47.5595C90.8174 47.3174 91.1867 46.9445 91.4314 44.4041L91.7087 41.5233L94.8088 44.6234C97.3527 47.1674 98.5563 47.7235 101.516 47.7235H105.124L100.945 43.4804L96.7659 39.2373L100.319 36.0266C102.275 34.2599 103.874 32.6168 103.874 32.3747C103.874 32.1317 102.369 31.9335 100.529 31.9335C97.9387 31.9335 96.6036 32.5414 94.6079 34.6301L92.0315 37.3258L91.5929 30.0246L91.1542 22.7226L88.3033 22.4481L85.4523 22.1726V35.0038ZM56.5039 29.7404C56.5039 30.9466 56.1091 31.9335 55.6267 31.9335C55.1442 31.9335 54.7494 32.9204 54.7494 34.1265C54.7494 35.3327 55.1442 36.3196 55.6267 36.3196C56.1214 36.3196 56.5039 38.8048 56.5039 42.0216V47.7235H59.1356H61.7672V42.0216C61.7672 36.9047 61.9471 36.3196 63.5217 36.3196C64.8086 36.3196 65.2761 35.7345 65.2761 34.1265C65.2761 32.5186 64.8086 31.9335 63.5217 31.9335C62.2348 31.9335 61.7672 31.3484 61.7672 29.7404C61.7672 27.8886 61.3576 27.5474 59.1356 27.5474C56.9136 27.5474 56.5039 27.8886 56.5039 29.7404ZM21.3211 34.2265C18.3534 37.3854 18.5824 42.94 21.7948 45.7024C24.3563 47.9051 29.1441 48.4156 30.8889 46.6708C31.7074 45.8524 31.9416 45.8524 31.9416 46.6708C31.9416 47.256 33.111 47.7235 34.5733 47.7235H37.205V39.9206V32.1177L30.2959 32.0721C24.0255 32.0309 23.1966 32.23 21.3211 34.2265ZM40.7139 39.8285V47.7235H43.3455C45.914 47.7235 45.9772 47.6191 45.9772 43.3997C45.9772 38.7434 47.5001 36.3196 50.4256 36.3196C51.6458 36.3196 52.1178 35.7073 52.1178 34.1265C52.1178 31.6966 49.8273 31.115 47.7974 33.03C46.8676 33.9072 46.5544 33.9072 46.2334 33.03C46.0123 32.4274 44.6798 31.9335 43.2727 31.9335H40.7139V39.8285ZM68.3069 34.0871C63.1857 39.2074 67.4288 47.7235 75.1019 47.7235C79.1565 47.7235 82.8206 45.8261 82.8206 43.726C82.8206 42.2646 77.9854 41.9347 77.1187 43.3374C76.1941 44.8331 73.2799 44.3032 72.2939 42.4602C71.3965 40.7829 71.6272 40.7057 77.5266 40.7057C84.3321 40.7057 84.8303 40.1768 82.4145 35.5055C80.8767 32.5309 79.5319 31.9335 74.3756 31.9335C71.3878 31.9335 69.9491 32.444 68.3069 34.0871ZM77.9959 36.3196C78.3187 36.8416 77.2739 37.1968 75.416 37.1968C73.6992 37.1968 72.2939 36.8021 72.2939 36.3196C72.2939 35.8371 73.4545 35.4424 74.8738 35.4424C76.2932 35.4424 77.6976 35.8371 77.9959 36.3196ZM30.9214 37.0898C32.4811 38.0784 31.8934 41.5979 29.9679 42.8049C26.9265 44.7111 23.5071 40.3987 25.8361 37.5933C27.0142 36.1731 29.1433 35.9626 30.9214 37.0898Z" fill="#D4CFC3"/>
</g>
</svg>
