<svg width="124" height="71" viewBox="0 0 124 71" fill="none" xmlns="http://www.w3.org/2000/svg">
<g id="Frame 13">
<path id="image 9 (Traced)" fill-rule="evenodd" clip-rule="evenodd" d="M40.9188 23.1535C38.5784 27.5273 43.9882 31.3117 47.5252 27.7756C49.0042 26.2957 48.6033 23.1605 46.7813 21.9596C44.8707 20.7007 41.9092 21.3043 40.9188 23.1535ZM50.6279 29.1835C50.6279 30.6309 50.2332 31.8152 49.7507 31.8152C49.2682 31.8152 48.8735 32.8021 48.8735 34.0082C48.8735 35.2144 49.2682 36.2013 49.7507 36.2013C50.2516 36.2013 50.6279 38.833 50.6279 42.3419V48.4824H53.6579H56.6887L56.9474 42.5612C57.1834 37.1812 57.3878 36.6145 59.1809 36.3592C60.5914 36.1592 61.1546 35.4881 61.1546 34.0082C61.1546 32.5284 60.5914 31.8573 59.1809 31.6573C57.7677 31.4564 57.1282 30.6915 56.9299 28.9642C56.6869 26.8545 56.2737 26.5518 53.6403 26.5518C50.8779 26.5518 50.6279 26.7703 50.6279 29.1835ZM71.8462 31.6959C71.2137 32.0968 68.7461 32.2371 66.3636 32.0082L62.0318 31.5924V40.0374V48.4824H65.4986H68.9663L69.2268 42.9998L69.4882 37.5171L72.3901 37.2382C75.0612 36.982 75.2709 36.7434 75.0218 34.2354C74.734 31.331 73.7121 30.5134 71.8462 31.6959ZM79.6728 32.1187C73.8121 35.489 73.7059 45.0078 79.4947 48.0017C82.3817 49.4939 86.2213 49.7956 86.9669 48.5886C87.2292 48.1649 89.2267 48.0184 91.4048 48.264L95.3664 48.7105V40.2225V31.7345L91.6382 31.8424C89.5872 31.902 86.5283 31.7169 84.8397 31.4318C82.9405 31.1108 80.9694 31.3731 79.6728 32.1187ZM19.0479 32.2713C19.0479 32.5222 20.8409 36.2969 23.0313 40.6594C26.6937 47.9508 27.206 48.5702 29.3693 48.3175C31.3562 48.0868 32.3843 46.7806 35.9748 39.9295L40.2267 31.8152H36.8301C33.6466 31.8152 33.3054 32.0775 31.4097 35.9794L29.3868 40.1427L27.271 35.9794C25.3577 32.2152 24.8621 31.8152 22.1015 31.8152C20.4216 31.8152 19.0479 32.0205 19.0479 32.2713ZM40.9785 40.1488V48.4824H44.4874H47.9963V40.1488V31.8152H44.4874H40.9785V40.1488ZM88.1731 37.254C90.6337 39.7146 88.7802 44.0963 85.2783 44.0963C82.9273 44.0963 81.3308 42.4998 81.3308 40.1488C81.3308 37.7978 82.9273 36.2013 85.2783 36.2013C86.2915 36.2013 87.5942 36.675 88.1731 37.254ZM97.9805 43.2524C95.6383 47.6289 100.84 51.2931 104.376 47.7579C105.94 46.1929 106.06 45.599 105.192 43.6945C103.885 40.8251 99.4262 40.5515 97.9805 43.2524Z" fill="#D4CFC3"/>
</g>
</svg>
