<svg width="124" height="71" viewBox="0 0 124 71" fill="none" xmlns="http://www.w3.org/2000/svg">
<g id="Frame 14">
<path id="image 7 (Traced)" fill-rule="evenodd" clip-rule="evenodd" d="M42.0128 22.5881C41.6707 22.9302 41.3908 28.8261 41.3908 35.6903C41.3908 46.4056 41.5926 48.2469 42.8181 48.7171C46.1419 49.9926 46.7121 47.8188 46.4586 34.8526C46.2287 23.1574 46.1173 22.4653 44.4252 22.2232C43.44 22.082 42.3549 22.2469 42.0128 22.5881ZM24.285 31.1665C17.8672 33.9991 16.1356 40.8818 20.6533 45.5977C23.6367 48.7119 26.8473 49.4707 30.5299 47.932C34.1213 46.4311 36.1275 43.4397 36.1275 39.5852C36.1275 35.6693 34.1116 32.735 30.3387 31.1586C26.9035 29.7235 27.5544 29.7226 24.285 31.1665ZM49.9438 30.8832C48.763 31.5709 48.4113 32.9315 48.4218 36.7781C48.4376 43.0906 49.7596 45.7451 53.893 47.7697C56.6765 49.132 57.6441 49.218 60.3134 48.3364C64.6794 46.896 66.8233 43.0871 66.8268 36.7649C66.8295 32.5078 66.5417 31.5972 64.9154 30.727C63.2828 29.8533 62.7627 29.9954 61.3916 31.6893C60.1099 33.2718 59.8968 34.535 60.3433 37.9001C61.0591 43.2941 60.2503 46.603 58.2169 46.603C55.3896 46.603 54.5492 44.6933 54.5492 38.2694C54.5492 34.5947 54.1176 31.6095 53.4965 30.9884C52.2395 29.7314 51.9368 29.7226 49.9438 30.8832ZM73.2472 31.22C70.3243 32.4911 67.7076 36.443 67.7076 39.5852C67.7076 42.3283 69.9129 46.0784 72.2683 47.339C73.5165 48.0066 76.6114 48.3452 80.0185 48.1846C85.2398 47.9399 85.7143 47.7522 85.9863 45.8249C86.3995 42.9055 84.8757 42.2458 77.6834 42.23C70.7945 42.2151 68.2172 40.8256 70.3392 38.2694C71.1244 37.3237 73.2007 36.9535 77.7272 36.9535C84.2125 36.9535 86.1293 36.1202 86.1293 33.2999C86.1293 30.0191 78.7474 28.8269 73.2472 31.22ZM93.5857 30.5612C92.6207 30.7937 90.7461 32.006 89.4189 33.2552C85.9073 36.5632 85.9933 42.216 89.611 45.8337C92.0514 48.2741 92.5874 48.4224 98.0727 48.1785C104.534 47.8917 106.834 46.2837 104.612 43.6064C103.74 42.5555 101.788 42.2169 96.6007 42.2169C92.8278 42.2169 89.5583 41.9213 89.3346 41.559C89.1118 41.1967 90.7031 41.0423 92.8725 41.2151C97.3507 41.5713 99.299 40.3967 97.6086 38.3597C96.6893 37.2518 97.0753 37.0202 100.232 36.7878C102.653 36.6097 104.269 35.9649 104.9 34.9245C106.965 31.5279 100.282 28.9498 93.5857 30.5612ZM29.5483 39.5852C29.5483 46.0179 29.4992 46.1644 27.3553 46.1644C25.2718 46.1644 25.149 45.8828 24.8981 40.5546C24.5736 33.6745 25.021 32.363 27.5711 32.7253C29.422 32.9885 29.5483 33.4262 29.5483 39.5852Z" fill="#D4CFC3"/>
</g>
</svg>
