<svg width="124" height="71" viewBox="0 0 124 71" fill="none" xmlns="http://www.w3.org/2000/svg">
<g id="Frame 11">
<path id="image 5 (Traced)" fill-rule="evenodd" clip-rule="evenodd" d="M19.8122 19.6111C21.1737 20.4041 21.3474 22.1042 21.3474 34.6476C21.3474 46.5761 21.1202 49.0411 19.8956 50.3938C18.5043 51.9315 18.6596 51.9956 23.6238 51.9386C27.9994 51.8886 28.4976 51.7315 26.83 50.928C25.0168 50.0534 24.8563 49.3797 24.8563 42.6531C24.8563 35.495 24.9036 35.331 26.9765 35.331C28.4906 35.331 29.3477 36.0205 29.9775 37.7433C30.7389 39.8285 30.86 39.4416 30.8723 34.8923C30.8819 30.894 30.6951 30.1036 30.0924 31.6028C29.6556 32.6879 28.9239 33.5765 28.4652 33.5765C28.0064 33.5765 27.0072 33.816 26.244 34.109C25.0449 34.5695 24.8563 33.616 24.8563 27.0912C24.8563 20.462 25.0431 19.5488 26.3914 19.6023C29.3248 19.7208 31.2144 20.9682 32.3469 23.5367L33.4864 26.1201L33.5574 22.3919L33.6285 18.6637L25.9528 18.69C20.3096 18.7102 18.6832 18.9541 19.8122 19.6111ZM36.4795 19.6111C37.8462 20.4076 38.0146 22.1401 38.0146 35.4029C38.0146 50.0324 37.9795 50.3148 36.0409 51.0938C34.6496 51.6526 36.5593 51.9035 42.5078 51.9429L50.9484 51.9982L51.5283 48.3718C52.2467 43.883 51.7572 43.2067 50.3133 46.6936C49.3387 49.0455 45.5781 51.0912 42.1814 51.1157C41.8191 51.1184 41.5235 44.1997 41.5235 35.7415C41.5235 20.612 41.556 20.3488 43.4973 19.5681C45.0079 18.9611 44.235 18.7681 40.2077 18.7462C36.2225 18.7242 35.3172 18.9339 36.4795 19.6111ZM63.7226 20.8875C51.0379 27.2087 50.5765 44.7164 62.9462 50.335C69.6149 53.3632 77.7064 51.9842 83.0504 46.9077C86.7234 43.419 88.2673 39.8636 88.2673 34.8923C88.2673 27.9088 84.7891 22.7893 78.1634 20.0216C73.4826 18.0654 68.8245 18.3453 63.7226 20.8875ZM92.335 21.2278C88.1585 25.4043 88.9559 28.007 97.1457 36.931C103.37 43.7137 104.408 46.8787 101.325 49.6692C98.1343 52.557 93.3508 50.6333 91.1332 45.5708L89.9138 42.7874L89.8428 45.9699C89.7542 49.892 91.2139 51.2026 96.3088 51.7772C99.7835 52.1684 100.509 51.9219 102.887 49.5437C107.536 44.8945 106.641 41.768 97.9676 32.373C94.6087 28.7351 92.4025 25.5718 92.4025 24.3946C92.4025 22.2428 94.8965 19.5409 96.8816 19.5409C98.7747 19.5409 102.073 22.1007 102.936 24.2402C103.611 25.9096 103.701 25.8175 103.751 23.4104C103.793 21.3278 103.288 20.4638 101.572 19.6822C97.9001 18.0084 95.0833 18.4804 92.335 21.2278ZM77.1029 22.67C82.589 26.228 84.8856 30.3799 84.9181 36.8021C84.9391 40.9364 84.5172 42.7944 83.1373 44.6427C80.0345 48.7981 76.9897 50.5359 72.8106 50.5359C68.1517 50.5359 64.1743 48.377 60.5321 43.8707C55.2784 37.3705 56.7144 26.0069 63.3068 21.9173C66.9209 19.6751 72.9948 20.0058 77.1029 22.67Z" fill="#D4CFC3"/>
</g>
</svg>
