<svg width="24" height="24" viewBox="0 0 24 24" fill="none" xmlns="http://www.w3.org/2000/svg">
<path id="Star 1" d="M12 0L13.0199 7.53133L17.2066 1.18837L14.8578 8.4164L21.382 4.51812L16.1297 10.0113L23.6991 9.32975L16.5836 12L23.6991 14.6703L16.1297 13.9887L21.382 19.4819L14.8578 15.5836L17.2066 22.8116L13.0199 16.4687L12 24L10.9801 16.4687L6.7934 22.8116L9.14218 15.5836L2.61802 19.4819L7.87033 13.9887L0.300865 14.6703L7.41641 12L0.300865 9.32975L7.87033 10.0113L2.61802 4.51812L9.14218 8.4164L6.7934 1.18837L10.9801 7.53133L12 0Z" fill="#255849"/>
</svg>
